<?xml version="1.0" encoding="UTF-8"?>
<svg version="1.1" xmlns="http://www.w3.org/2000/svg" width="1024" height="1024">
<path d="M0 0 C337.92 0 675.84 0 1024 0 C1024 337.92 1024 675.84 1024 1024 C686.08 1024 348.16 1024 0 1024 C0 686.08 0 348.16 0 0 Z " fill="#FDFDFD" transform="translate(0,0)"/>
<path d="M0 0 C5.04123387 4.86238744 9.75257434 11.12122376 12.4375 17.625 C12.4375 18.945 12.4375 20.265 12.4375 21.625 C10.71257022 22.15969802 8.982302 22.67719175 7.25 23.1875 C6.28707031 23.47753906 5.32414062 23.76757812 4.33203125 24.06640625 C1.23213756 24.66463135 -0.59925922 24.70300656 -3.5625 23.625 C-4.78515625 21.953125 -4.78515625 21.953125 -5.625 19.875 C-9.30351074 10.99232891 -16.51919169 6.28293652 -25.09375 2.51171875 C-37.19029005 -1.42712377 -52.14651235 -1.00799829 -63.5625 4.625 C-76.15767838 11.64049618 -83.05465003 22.61471494 -87.37890625 36.1875 C-90.93914619 51.32474393 -88.84417156 69.34413355 -81.26953125 82.9453125 C-74.48797165 93.59096442 -65.24533811 99.78338096 -53.0625 103.0625 C-39.02639689 105.40619069 -24.64083137 103.33590705 -12.5625 95.625 C-7.15963727 91.45562103 -4.22097813 87.35105018 -2.5625 80.625 C-2.2325 75.345 -1.9025 70.065 -1.5625 64.625 C-13.7725 64.625 -25.9825 64.625 -38.5625 64.625 C-38.5625 59.675 -38.5625 54.725 -38.5625 49.625 C-21.0725 49.625 -3.5825 49.625 14.4375 49.625 C15.21839031 88.6695157 15.21839031 88.6695157 6.18359375 98.8984375 C5.60738281 99.46820312 5.03117187 100.03796875 4.4375 100.625 C3.78910156 101.29789063 3.14070313 101.97078125 2.47265625 102.6640625 C-10.61344368 115.30054959 -26.10426561 118.10532689 -43.62695312 117.9765625 C-61.27448369 117.58023617 -76.26346073 112.70636609 -89.17382812 100.10693359 C-103.10038373 85.2450854 -106.10984945 65.93454647 -105.8359375 46.2890625 C-105.24168012 28.71434183 -98.04000098 13.92329091 -85.5625 1.625 C-84.71751953 0.76455078 -84.71751953 0.76455078 -83.85546875 -0.11328125 C-61.61340118 -21.05654196 -22.77418246 -18.51773602 0 0 Z " fill="#151515" transform="translate(286.5625,425.375)"/>
<path d="M0 0 C4.76200239 3.51439291 8.78504021 7.66228339 12.1171875 12.5625 C12.6328125 11.69625 13.1484375 10.83 13.6796875 9.9375 C18.74831793 2.47534964 25.37539338 -1.39081011 34.1171875 -3.4375 C43.21475485 -4.50850991 53.19124515 -3.71467652 60.953125 1.44921875 C68.67057734 7.93323663 72.23305823 14.5811715 73.1171875 24.5625 C73.25343572 29.23859435 73.23344151 33.9121163 73.21484375 38.58984375 C73.2129759 39.94747363 73.21155373 41.30510419 73.21055603 42.66273499 C73.20675972 46.21532084 73.19695446 49.76786504 73.18585205 53.32043457 C73.17557551 56.95385169 73.1710451 60.58727562 73.16601562 64.22070312 C73.15532927 71.33465397 73.13775622 78.44856986 73.1171875 85.5625 C67.8371875 85.5625 62.5571875 85.5625 57.1171875 85.5625 C57.1078418 83.6959375 57.09849609 81.829375 57.08886719 79.90625 C57.05324029 73.71544648 56.99937956 67.52500779 56.93328476 61.3344574 C56.89389912 57.58379453 56.86166747 53.8333633 56.84619141 50.08251953 C56.83096531 46.45770046 56.79641656 42.83351857 56.74887848 39.20898438 C56.73412551 37.83127403 56.72615 36.45347267 56.72530365 35.07568359 C56.71561736 27.20861361 56.56282646 21.2039849 52.1171875 14.5625 C46.5890572 9.99681485 40.42221346 9.95645639 33.46484375 10.1796875 C27.38458542 10.87497958 23.31316785 12.95974238 19.2421875 17.5 C15.94551134 22.25109211 14.87122325 25.86800302 14.79833984 31.63793945 C14.77847015 32.83880692 14.75860046 34.03967438 14.73812866 35.27693176 C14.72657745 36.56355209 14.71502625 37.85017242 14.703125 39.17578125 C14.68440152 40.51386189 14.66482723 41.85193087 14.6444397 43.18998718 C14.5932368 46.69976916 14.55354814 50.20958938 14.51629639 53.71954346 C14.47618211 57.30596278 14.42512376 60.8922247 14.375 64.47851562 C14.27838114 71.50640101 14.19494411 78.53437692 14.1171875 85.5625 C9.1671875 85.5625 4.2171875 85.5625 -0.8828125 85.5625 C-0.89739502 83.75652344 -0.91197754 81.95054687 -0.92700195 80.08984375 C-0.97881122 74.09864286 -1.0441389 68.10771481 -1.11852741 62.11676025 C-1.16310655 58.48720555 -1.20238924 54.85775986 -1.22924805 51.22802734 C-1.25540653 47.71999649 -1.29589516 44.21238802 -1.34599876 40.70462036 C-1.37061137 38.72627354 -1.38067973 36.74776287 -1.39045715 34.76928711 C-1.51620727 27.01455773 -1.83613115 20.55470315 -6.6953125 14.1875 C-11.33670104 10.73961137 -16.23022551 10.26859404 -21.8828125 10.25 C-23.0584375 10.23324219 -24.2340625 10.21648437 -25.4453125 10.19921875 C-31.77716816 10.86838077 -35.79977785 13.81735162 -39.8828125 18.5625 C-42.3385371 22.78489612 -43.263812 25.88125273 -43.31518555 30.75146484 C-43.33497971 31.95225677 -43.35477386 33.15304871 -43.37516785 34.39022827 C-43.38155777 35.67168732 -43.38794769 36.95314636 -43.39453125 38.2734375 C-43.4113936 39.61009353 -43.42954593 40.94673386 -43.44892883 42.28335571 C-43.49626683 45.7849232 -43.52618027 49.28642699 -43.55236816 52.78820801 C-43.58225608 56.36804785 -43.62875789 59.94766856 -43.67382812 63.52734375 C-43.75967652 70.538952 -43.82556605 77.55060046 -43.8828125 84.5625 C-48.8328125 84.5625 -53.7828125 84.5625 -58.8828125 84.5625 C-58.8828125 56.1825 -58.8828125 27.8025 -58.8828125 -1.4375 C-54.2628125 -1.4375 -49.6428125 -1.4375 -44.8828125 -1.4375 C-44.8828125 2.8525 -44.8828125 7.1425 -44.8828125 11.5625 C-44.2228125 11.5625 -43.5628125 11.5625 -42.8828125 11.5625 C-42.62628906 10.9746875 -42.36976563 10.386875 -42.10546875 9.78125 C-38.94896896 4.05316093 -32.63216836 -0.38045607 -26.62890625 -2.7734375 C-17.70548812 -4.93130533 -8.01359401 -4.74879645 0 0 Z " fill="#141414" transform="translate(673.8828125,455.4375)"/>
<path d="M0 0 C2.85603603 1.70476569 4.8972162 3.64857321 7.015625 6.203125 C7.758125 7.09 8.500625 7.976875 9.265625 8.890625 C11.015625 11.203125 11.015625 11.203125 12.015625 13.203125 C12.5003125 12.61144531 12.985 12.01976562 13.484375 11.41015625 C20.3299572 3.340268 27.07276337 -2.07045889 37.8984375 -3.203125 C48.61005065 -3.5952892 56.66449269 -2.0971836 65.1640625 4.99609375 C72.86638121 12.87715825 74.47132458 22.55398231 74.46881104 33.2071991 C74.44839723 34.56392067 74.42753347 35.92063554 74.40625 37.27734375 C74.3987702 38.69650975 74.39308551 40.11568622 74.38909912 41.53486633 C74.37397906 45.23234635 74.33481965 48.92917677 74.2902832 52.62640381 C74.24903208 56.414258 74.23102508 60.2022193 74.2109375 63.99023438 C74.16830795 71.39485874 74.09807478 78.79881733 74.015625 86.203125 C69.065625 86.203125 64.115625 86.203125 59.015625 86.203125 C58.985896 83.63833374 58.985896 83.63833374 58.95556641 81.02172852 C58.88751144 75.3419178 58.81071614 69.66226914 58.72809792 63.98265171 C58.67837161 60.5425925 58.63204182 57.10256052 58.59375 53.66235352 C58.54946864 49.69791083 58.48991798 45.7337649 58.4296875 41.76953125 C58.41813629 40.54730362 58.40658508 39.32507599 58.39468384 38.06581116 C58.25460411 26.76143834 58.25460411 26.76143834 54.328125 16.328125 C48.07626313 10.58317085 41.78857433 10.66870406 33.5546875 10.85546875 C27.53265279 11.44703728 24.27243477 13.64735792 20.203125 18.078125 C16.77263976 22.9788182 15.77309081 27.37328018 15.69677734 33.30029297 C15.67690765 34.48106415 15.65703796 35.66183533 15.63656616 36.87838745 C15.62501495 38.13797272 15.61346375 39.39755798 15.6015625 40.6953125 C15.58219635 41.99638947 15.5628302 43.29746643 15.5428772 44.63796997 C15.49174561 48.08033264 15.45201912 51.52273422 15.41473389 54.965271 C15.37457452 58.48475621 15.3235369 62.00408223 15.2734375 65.5234375 C15.17690324 72.4165565 15.09343382 79.30976945 15.015625 86.203125 C10.065625 86.203125 5.115625 86.203125 0.015625 86.203125 C-0.014104 83.58503906 -0.014104 83.58503906 -0.04443359 80.9140625 C-0.11243137 75.1224892 -0.18922313 69.33106764 -0.27190208 63.53968811 C-0.32167233 60.03121836 -0.36800253 56.52277594 -0.40625 53.01416016 C-0.45046022 48.97279621 -0.51002995 44.9317814 -0.5703125 40.890625 C-0.58186371 39.6413623 -0.59341492 38.39209961 -0.60531616 37.10498047 C-0.76464875 27.63773351 -1.05586972 20.13163028 -7.984375 13.203125 C-11.66693713 10.68211868 -15.55302567 10.8708711 -19.859375 10.890625 C-20.55417969 10.87451172 -21.24898438 10.85839844 -21.96484375 10.84179688 C-26.7451237 10.83729567 -29.88162782 11.81087034 -33.984375 14.203125 C-34.726875 14.491875 -35.469375 14.780625 -36.234375 15.078125 C-38.73092805 16.68305196 -39.07854926 18.42094593 -39.984375 21.203125 C-40.32584564 21.96014206 -40.66731628 22.71715912 -41.01913452 23.49711609 C-42.10676287 26.54623396 -42.2616875 28.95394779 -42.30322266 32.18676758 C-42.32309235 33.36761429 -42.34296204 34.548461 -42.36343384 35.76509094 C-42.38076065 37.66221077 -42.38076065 37.66221077 -42.3984375 39.59765625 C-42.41780365 40.90014816 -42.4371698 42.20264008 -42.4571228 43.54460144 C-42.50832018 46.9951985 -42.54801176 50.44583444 -42.58526611 53.89660645 C-42.62538388 57.42270426 -42.67644062 60.94864208 -42.7265625 64.47460938 C-42.82317482 71.38400398 -42.90661437 78.29349277 -42.984375 85.203125 C-47.934375 85.203125 -52.884375 85.203125 -57.984375 85.203125 C-57.984375 56.823125 -57.984375 28.443125 -57.984375 -0.796875 C-53.034375 -0.796875 -48.084375 -0.796875 -42.984375 -0.796875 C-42.654375 3.163125 -42.324375 7.123125 -41.984375 11.203125 C-41.076875 10.006875 -40.169375 8.810625 -39.234375 7.578125 C-29.12948865 -3.77976725 -13.74320653 -6.46203751 0 0 Z " fill="#131313" transform="translate(517.984375,454.796875)"/>
<path d="M0 0 C11.03717211 -0.43327742 21.35425688 1.40878891 30.21875 8.4140625 C38.41811111 16.52563602 40.70508268 27.42456713 40.88330078 38.59423828 C40.88298827 40.95347422 40.87193785 43.31272703 40.8515625 45.671875 C40.8487326 46.92290009 40.84590271 48.17392517 40.84298706 49.46286011 C40.83375168 52.75407814 40.81585118 56.04509211 40.7935791 59.33624268 C40.77294861 62.70851167 40.76394895 66.0808108 40.75390625 69.453125 C40.73195389 76.04435945 40.69748031 82.63542159 40.65625 89.2265625 C35.37625 89.2265625 30.09625 89.2265625 24.65625 89.2265625 C24.32625 85.9265625 23.99625 82.6265625 23.65625 79.2265625 C22.480625 80.3196875 21.305 81.4128125 20.09375 82.5390625 C12.1724761 89.43196049 2.53307619 91.68252148 -7.80078125 91.41015625 C-17.6173823 90.70143083 -25.02083427 88.15251254 -31.71875 80.7265625 C-36.70050338 74.82638531 -37.01975702 68.44858938 -36.78515625 60.96875 C-35.9750391 54.10067718 -32.4638674 49.70552219 -27.21875 45.4140625 C-15.5780755 37.95473893 -2.12826117 38.07630912 11.15625 38.1640625 C12.455625 38.16857422 13.755 38.17308594 15.09375 38.17773438 C18.28129825 38.1894533 21.46874955 38.20586031 24.65625 38.2265625 C24.52795276 36.31851836 24.39081538 34.4110674 24.25 32.50390625 C24.17458984 31.44163818 24.09917969 30.37937012 24.02148438 29.28491211 C23.38904389 23.98906852 21.8481785 20.3260912 17.98828125 16.62890625 C12.97167035 13.14541822 7.96200478 12.75110066 2.03125 12.6640625 C0.95677612 12.64182617 0.95677612 12.64182617 -0.1394043 12.61914062 C-5.58563274 12.72458794 -8.84357262 14.16261194 -13.34375 17.2265625 C-15.64772355 19.77961427 -17.43695938 22.36637656 -19.34375 25.2265625 C-22.6015625 25.51953125 -22.6015625 25.51953125 -26.46875 25.4140625 C-27.75007812 25.38699219 -29.03140625 25.35992187 -30.3515625 25.33203125 C-31.33898437 25.29722656 -32.32640625 25.26242187 -33.34375 25.2265625 C-32.27158051 17.19669741 -28.61394865 11.57507206 -22.29296875 6.54296875 C-15.20140668 1.75367733 -8.36666964 0.56690051 0 0 Z " fill="#151515" transform="translate(801.34375,451.7734375)"/>
<path d="M0 0 C9.40309019 6.17302104 14.03844713 17.1850385 16.671875 27.71875 C16.671875 32.66875 16.671875 37.61875 16.671875 42.71875 C-5.768125 42.71875 -28.208125 42.71875 -51.328125 42.71875 C-49.5251284 55.80951013 -49.5251284 55.80951013 -42.328125 65.71875 C-34.39421874 71.50222039 -26.97491493 72.38613798 -17.328125 71.71875 C-9.7213565 70.2528022 -4.32947046 66.87165235 0.046875 60.40625 C0.583125 59.519375 1.119375 58.6325 1.671875 57.71875 C5.961875 58.70875 10.251875 59.69875 14.671875 60.71875 C13.05161733 68.82003835 8.35193087 73.79193799 1.6796875 78.47265625 C-5.82604359 83.13088236 -13.85134675 85.09967587 -22.578125 85.03125 C-23.69574219 85.02387817 -23.69574219 85.02387817 -24.8359375 85.01635742 C-36.59540811 84.76840146 -46.82290778 81.14439152 -55.515625 73.09375 C-66.57574164 61.39342701 -67.92002581 48.35600019 -67.640625 33.03125 C-67.38798236 26.99309094 -66.29237096 22.01930196 -63.328125 16.71875 C-62.90402344 15.93757813 -62.47992188 15.15640625 -62.04296875 14.3515625 C-55.91393887 4.21049357 -46.82368495 -2.60198978 -35.41503906 -5.82104492 C-22.95657071 -8.56837913 -10.98104373 -6.04325896 0 0 Z " fill="#151515" transform="translate(425.328125,458.28125)"/>
<path d="M0 0 C4.95 0 9.9 0 15 0 C15 41.58 15 83.16 15 126 C10.05 126 5.1 126 0 126 C0 84.42 0 42.84 0 0 Z " fill="#101010" transform="translate(324,414)"/>
<path d="M0 0 C0.75085652 17.37398569 0.75085652 17.37398569 -4 23 C-10.5420202 29.39664198 -17.74655142 31.85971169 -26.6875 32.375 C-32.60509966 32.29539104 -37.21946275 30.45454882 -42 27 C-45.05289008 23.75827136 -45.92375117 20.43669786 -46.6875 16.0625 C-46.39413769 11.61892386 -44.42405451 8.85719547 -41.3203125 5.765625 C-29.90460158 -2.92107759 -13.4805086 -0.39244567 0 0 Z " fill="#F7F7F7" transform="translate(826,500)"/>
<path d="M0 0 C3.74040231 3.42027779 5.5339424 6.54596564 7.3125 11.3125 C7.3125 14.2825 7.3125 17.2525 7.3125 20.3125 C-9.8475 20.3125 -27.0075 20.3125 -44.6875 20.3125 C-44.6875 11.11743263 -42.14525383 5.92043416 -35.6875 -0.6875 C-25.16610177 -8.41801091 -10.14482889 -7.85475148 0 0 Z " fill="#FAFAFA" transform="translate(418.6875,469.6875)"/>
<path d="M0 0 C-0.33 0.99 -0.66 1.98 -1 3 C-3.5625 4.1875 -3.5625 4.1875 -6 5 C-6.66 4.34 -7.32 3.68 -8 3 C-2.25 0 -2.25 0 0 0 Z " fill="#202020" transform="translate(385,455)"/>
</svg>
