<svg width="542.84" height="981.74" viewBox="0 0 542.84 981.74" xmlns="http://www.w3.org/2000/svg" shape-rendering="crispEdges">
      <rect width="100%" height="100%" fill="white"/>
      <defs><clipPath id="dl-mask"><path fill-rule="evenodd" clip-rule="evenodd" d="M156.452 267.262C161.433 266.069 166.505 266.339 171.599 268.863C174.906 270.504 178.424 273.199 182 277.393V344L0 343.45V278.002C5.3279 273.079 11.7708 268.857 18.4324 267.262C23.4131 266.069 28.4854 266.339 33.5792 268.863C38.7735 271.44 44.4917 276.616 50.1285 286.119C51.4471 288.341 54.0703 289.376 56.5117 288.832C58.7331 289.319 61.1388 288.517 62.5566 286.609C68.4757 278.638 78.3456 269.752 88.7443 267.262C93.7249 266.069 98.7972 266.339 103.891 268.863C109.066 271.43 114.762 276.579 120.379 286.017L120.44 286.119C120.586 286.364 120.748 286.596 120.923 286.812C121.051 286.97 121.185 287.119 121.328 287.26L121.346 287.277C121.571 287.497 121.816 287.703 122.083 287.891C124.01 289.245 126.509 289.287 128.445 288.208L128.555 288.146C128.924 287.928 129.271 287.668 129.589 287.369C129.832 287.138 130.058 286.886 130.264 286.609L130.334 286.515C136.261 278.569 146.094 269.742 156.452 267.262Z M156.452 223.321C161.433 222.127 166.505 222.397 171.599 224.922C174.456 226.34 177.471 228.546 180.545 231.824L181.489 261.389C179.99 260.364 178.467 259.468 176.919 258.7C169.024 254.784 161.024 254.42 153.653 256.185C142.598 258.831 132.946 266.237 126.072 273.586C120.871 266.569 115.222 261.683 109.211 258.7C101.316 254.784 93.3167 254.42 85.9456 256.185C74.0884 259.022 63.8447 267.336 56.9122 275.183C51.3975 267.304 45.3563 261.903 38.8994 258.7C31.0044 254.784 23.0049 254.42 15.6338 256.185C10.1864 257.489 5.08096 259.95 0.479376 262.989L1.44321 232.767C6.47248 228.409 12.3619 224.774 18.4324 223.321C23.4131 222.127 28.4854 222.397 33.5792 224.922C38.7735 227.499 44.4917 232.675 50.1285 242.177C51.4471 244.4 54.0703 245.435 56.5117 244.89C58.7331 245.378 61.1388 244.576 62.5566 242.667C68.4757 234.697 78.3456 225.811 88.7443 223.321C93.7249 222.127 98.7972 222.397 103.891 224.922C109.066 227.489 114.762 232.638 120.379 242.076L120.44 242.177C120.586 242.422 120.748 242.655 120.923 242.87C121.051 243.029 121.185 243.177 121.328 243.318L121.346 243.336C121.571 243.556 121.816 243.761 122.083 243.95C124.01 245.304 126.509 245.346 128.445 244.266L128.555 244.205C128.924 243.987 129.271 243.727 129.589 243.427C129.832 243.197 130.058 242.945 130.264 242.667L130.334 242.573C136.261 234.628 146.094 225.801 156.452 223.321Z M156.452 179.379C160.037 178.521 163.669 178.42 167.322 179.372C174.273 190.297 178.733 202.895 179.924 216.429C178.932 215.818 177.931 215.261 176.919 214.759C169.024 210.843 161.024 210.479 153.653 212.244C142.598 214.89 132.946 222.296 126.072 229.645C120.871 222.628 115.222 217.741 109.211 214.759C101.316 210.843 93.3167 210.479 85.9456 212.244C74.0884 215.08 63.8447 223.395 56.9122 231.241C51.3975 223.363 45.3563 217.962 38.8994 214.759C31.0044 210.843 23.0049 210.479 15.6338 212.244C10.7666 213.408 6.17179 215.497 1.96582 218.096C2.88119 204.576 7.05507 191.949 13.7239 180.939C15.2729 180.287 16.8466 179.759 18.4324 179.379C23.4131 178.186 28.4854 178.456 33.5792 180.981C38.7735 183.557 44.4917 188.733 50.1285 198.236C51.4471 200.459 54.0703 201.493 56.5117 200.949C58.7331 201.436 61.1388 200.635 62.5566 198.726C68.4757 190.756 78.3456 181.869 88.7443 179.379C93.7249 178.186 98.7972 178.456 103.891 180.981C109.066 183.548 114.762 188.696 120.379 198.134L120.44 198.236C120.586 198.481 120.748 198.714 120.923 198.929C121.051 199.087 121.185 199.236 121.328 199.377L121.346 199.394C121.571 199.615 121.816 199.82 122.083 200.008C124.01 201.362 126.509 201.404 128.445 200.325L128.555 200.263C128.924 200.045 129.271 199.785 129.589 199.486C129.832 199.256 130.058 199.003 130.264 198.726L130.334 198.632C136.261 190.686 146.094 181.859 156.452 179.379Z M58.1012 61.2165C62.7506 42.4589 73.5204 17.9862 98.3635 0C98.3635 0 89.9955 25.6788 97.8728 54.1061C110.199 44.6762 127.858 34.8484 153.031 26.8678C153.031 26.8678 135.13 43.7072 125.713 68.0709C137.034 62.153 151.03 56.5003 168.33 51.5178C168.33 51.5178 144.209 73.4845 128.365 101.184C156.143 94.6616 182 102.931 182 102.931C146.797 110.264 134.024 133.169 128.295 146.425C139.768 151.305 149.954 158.537 158.2 167.505C156.663 167.676 155.145 167.945 153.653 168.302C142.598 170.948 132.946 178.354 126.072 185.704C120.871 178.686 115.222 173.8 109.211 170.817C101.316 166.901 93.3167 166.537 85.9456 168.302C74.0884 171.139 63.8447 179.454 56.9122 187.3C51.3975 179.421 45.3563 174.02 38.8994 170.817C33.9193 168.347 28.8976 167.291 24.0184 167.29C29.8963 160.941 36.7497 155.471 44.3449 151.099L44.3446 149.952C44.3446 149.952 44.9362 113.793 -0.000114224 109.505C-0.000114224 109.505 14.4775 98.9381 35.6782 99.8769C30.8538 92.8473 20.2779 79.4279 9.05735 78.0774C9.05735 78.0774 22.2485 65.9802 47.4433 82.0231C42.4436 72.4194 35.2229 61.6543 24.7992 50.7934C24.7992 50.7934 40.2703 52.2198 58.1012 61.2165Z" transform="translate(40, 40) scale(2.66, 2.66)" /><rect x="40" y="822.04" width="462.84000000000003" height="119.7" /></clipPath></defs>
      <g clip-path="url(#dl-mask)"><rect x="40" y="40" width="3.4800000000000004" height="901.74" fill="#008080" /><rect x="45.22" y="40" width="1.7400000000000002" height="901.74" fill="#008080" /><rect x="50.44" y="40" width="1.7400000000000002" height="901.74" fill="#008080" /><rect x="59.14" y="40" width="1.7400000000000002" height="901.74" fill="#008080" /><rect x="64.36" y="40" width="3.4800000000000004" height="901.74" fill="#008080" /><rect x="74.80000000000001" y="40" width="1.7400000000000002" height="901.74" fill="#008080" /><rect x="78.28" y="40" width="1.7400000000000002" height="901.74" fill="#008080" /><rect x="83.5" y="40" width="6.960000000000001" height="901.74" fill="#008080" /><rect x="92.2" y="40" width="1.7400000000000002" height="901.74" fill="#008080" /><rect x="97.42000000000002" y="40" width="1.7400000000000002" height="901.74" fill="#008080" /><rect x="102.64000000000001" y="40" width="6.960000000000001" height="901.74" fill="#008080" /><rect x="111.34" y="40" width="1.7400000000000002" height="901.74" fill="#008080" /><rect x="116.56" y="40" width="1.7400000000000002" height="901.74" fill="#008080" /><rect x="120.04" y="40" width="1.7400000000000002" height="901.74" fill="#008080" /><rect x="125.26" y="40" width="6.960000000000001" height="901.74" fill="#008080" /><rect x="135.70000000000002" y="40" width="1.7400000000000002" height="901.74" fill="#008080" /><rect x="139.18" y="40" width="6.960000000000001" height="901.74" fill="#008080" /><rect x="149.62" y="40" width="1.7400000000000002" height="901.74" fill="#008080" /><rect x="154.84000000000003" y="40" width="5.220000000000001" height="901.74" fill="#008080" /><rect x="163.54000000000002" y="40" width="1.7400000000000002" height="901.74" fill="#008080" /><rect x="168.76000000000002" y="40" width="3.4800000000000004" height="901.74" fill="#008080" /><rect x="173.98000000000002" y="40" width="1.7400000000000002" height="901.74" fill="#008080" /><rect x="177.46" y="40" width="5.220000000000001" height="901.74" fill="#008080" /><rect x="186.16000000000003" y="40" width="3.4800000000000004" height="901.74" fill="#008080" /><rect x="193.12" y="40" width="1.7400000000000002" height="901.74" fill="#008080" /><rect x="196.60000000000002" y="40" width="5.220000000000001" height="901.74" fill="#008080" /><rect x="205.3" y="40" width="3.4800000000000004" height="901.74" fill="#008080" /><rect x="212.26000000000002" y="40" width="1.7400000000000002" height="901.74" fill="#008080" /><rect x="217.48000000000002" y="40" width="6.960000000000001" height="901.74" fill="#008080" /><rect x="226.18000000000004" y="40" width="1.7400000000000002" height="901.74" fill="#008080" /><rect x="231.40000000000003" y="40" width="1.7400000000000002" height="901.74" fill="#008080" /><rect x="236.62000000000003" y="40" width="3.4800000000000004" height="901.74" fill="#008080" /><rect x="247.06000000000003" y="40" width="1.7400000000000002" height="901.74" fill="#008080" /><rect x="250.54000000000002" y="40" width="1.7400000000000002" height="901.74" fill="#008080" /><rect x="254.02000000000004" y="40" width="3.4800000000000004" height="901.74" fill="#008080" /><rect x="260.98" y="40" width="1.7400000000000002" height="901.74" fill="#008080" /><rect x="269.68000000000006" y="40" width="1.7400000000000002" height="901.74" fill="#008080" /><rect x="274.90000000000003" y="40" width="3.4800000000000004" height="901.74" fill="#008080" /><rect x="280.12" y="40" width="1.7400000000000002" height="901.74" fill="#008080" /><rect x="288.82000000000005" y="40" width="3.4800000000000004" height="901.74" fill="#008080" /><rect x="295.78000000000003" y="40" width="1.7400000000000002" height="901.74" fill="#008080" /><rect x="299.26000000000005" y="40" width="1.7400000000000002" height="901.74" fill="#008080" /><rect x="307.96000000000004" y="40" width="1.7400000000000002" height="901.74" fill="#008080" /><rect x="311.44000000000005" y="40" width="3.4800000000000004" height="901.74" fill="#008080" /><rect x="318.40000000000003" y="40" width="1.7400000000000002" height="901.74" fill="#008080" /><rect x="327.1" y="40" width="6.960000000000001" height="901.74" fill="#008080" /><rect x="335.8" y="40" width="5.220000000000001" height="901.74" fill="#008080" /><rect x="342.76000000000005" y="40" width="1.7400000000000002" height="901.74" fill="#008080" /><rect x="346.24" y="40" width="6.960000000000001" height="901.74" fill="#008080" /><rect x="354.94000000000005" y="40" width="5.220000000000001" height="901.74" fill="#008080" /><rect x="361.90000000000003" y="40" width="1.7400000000000002" height="901.74" fill="#008080" /><rect x="365.38000000000005" y="40" width="1.7400000000000002" height="901.74" fill="#008080" /><rect x="370.6" y="40" width="1.7400000000000002" height="901.74" fill="#008080" /><rect x="374.08000000000004" y="40" width="3.4800000000000004" height="901.74" fill="#008080" /><rect x="384.52000000000004" y="40" width="1.7400000000000002" height="901.74" fill="#008080" /><rect x="389.74000000000007" y="40" width="3.4800000000000004" height="901.74" fill="#008080" /><rect x="396.70000000000005" y="40" width="5.220000000000001" height="901.74" fill="#008080" /><rect x="403.66" y="40" width="1.7400000000000002" height="901.74" fill="#008080" /><rect x="412.36000000000007" y="40" width="1.7400000000000002" height="901.74" fill="#008080" /><rect x="415.84000000000003" y="40" width="3.4800000000000004" height="901.74" fill="#008080" /><rect x="422.80000000000007" y="40" width="1.7400000000000002" height="901.74" fill="#008080" /><rect x="429.76000000000005" y="40" width="6.960000000000001" height="901.74" fill="#008080" /><rect x="438.46000000000004" y="40" width="1.7400000000000002" height="901.74" fill="#008080" /><rect x="441.94000000000005" y="40" width="6.960000000000001" height="901.74" fill="#008080" /><rect x="450.64000000000004" y="40" width="5.220000000000001" height="901.74" fill="#008080" /><rect x="457.6" y="40" width="1.7400000000000002" height="901.74" fill="#008080" /><rect x="461.08000000000004" y="40" width="3.4800000000000004" height="901.74" fill="#008080" /><rect x="469.78000000000003" y="40" width="3.4800000000000004" height="901.74" fill="#008080" /><rect x="475.00000000000006" y="40" width="3.4800000000000004" height="901.74" fill="#008080" /><rect x="480.22" y="40" width="3.4800000000000004" height="901.74" fill="#008080" /><rect x="488.9200000000001" y="40" width="5.220000000000001" height="901.74" fill="#008080" /><rect x="495.88000000000005" y="40" width="1.7400000000000002" height="901.74" fill="#008080" /><rect x="499.36000000000007" y="40" width="3.4800000000000004" height="901.74" fill="#008080" /></g>
      <g fill="#008080"></g>
    </svg>